<svg xmlns="http://www.w3.org/2000/svg" width="1100" height="720" viewBox="0 0 1100 720" role="img" aria-labelledby="title desc">
  <title id="title">Laravel Alias Manager preset preview</title>
  <desc id="desc">A terminal-style screenshot showing alias-manager presets and alias search.</desc>
  <defs>
    <linearGradient id="bg" x1="0" x2="1" y1="0" y2="1">
      <stop offset="0" stop-color="#10151f"/>
      <stop offset="1" stop-color="#1b2330"/>
    </linearGradient>
    <filter id="shadow" x="-20%" y="-20%" width="140%" height="140%">
      <feDropShadow dx="0" dy="18" stdDeviation="20" flood-color="#000000" flood-opacity="0.32"/>
    </filter>
  </defs>
  <rect width="1100" height="720" fill="#eef2f7"/>
  <rect x="74" y="58" width="952" height="604" rx="18" fill="url(#bg)" filter="url(#shadow)"/>
  <rect x="74" y="58" width="952" height="58" rx="18" fill="#273142"/>
  <rect x="74" y="98" width="952" height="18" fill="#273142"/>
  <circle cx="112" cy="88" r="8" fill="#ff5f57"/>
  <circle cx="140" cy="88" r="8" fill="#ffbd2e"/>
  <circle cx="168" cy="88" r="8" fill="#28c840"/>
  <text x="550" y="94" text-anchor="middle" fill="#c9d4e5" font-family="ui-monospace, SFMono-Regular, Menlo, Consolas, monospace" font-size="15">laravel-alias-manager</text>

  <text x="118" y="162" fill="#8bd5ff" font-family="ui-monospace, SFMono-Regular, Menlo, Consolas, monospace" font-size="18">$ php artisan alias-manager:presets</text>
  <text x="118" y="218" fill="#f7fafc" font-family="ui-monospace, SFMono-Regular, Menlo, Consolas, monospace" font-size="24" font-weight="700">Available Alias Presets</text>

  <g font-family="ui-monospace, SFMono-Regular, Menlo, Consolas, monospace" font-size="18">
    <text x="118" y="272" fill="#7dd3fc">core</text>
    <text x="258" y="272" fill="#d7dee9">Git, Composer, PHP, Artisan, and system helpers.</text>
    <text x="118" y="316" fill="#7dd3fc">fullstack</text>
    <text x="258" y="316" fill="#d7dee9">Laravel, frontend, quality, security, and workflow.</text>
    <text x="118" y="360" fill="#7dd3fc">sail</text>
    <text x="258" y="360" fill="#d7dee9">Sail-first Laravel development.</text>
    <text x="118" y="404" fill="#7dd3fc">frontend</text>
    <text x="258" y="404" fill="#d7dee9">npm, pnpm, Yarn, and Vite.</text>
    <text x="118" y="448" fill="#7dd3fc">ops</text>
    <text x="258" y="448" fill="#d7dee9">Docker, GitHub CLI, security, and workflow.</text>
    <text x="118" y="492" fill="#7dd3fc">pro</text>
    <text x="258" y="492" fill="#d7dee9">Everything for full-stack Laravel work.</text>
    <text x="118" y="548" fill="#8bd5ff">$ php artisan alias-manager:search route</text>
    <text x="118" y="586" fill="#d7dee9">routes  artisan  php artisan route:list</text>
  </g>

  <rect x="740" y="202" width="220" height="52" rx="10" fill="#15202b" stroke="#334155"/>
  <text x="850" y="235" text-anchor="middle" fill="#34d399" font-family="ui-monospace, SFMono-Regular, Menlo, Consolas, monospace" font-size="17" font-weight="700">DAM-style</text>
</svg>
