<svg xmlns="http://www.w3.org/2000/svg" width="1100" height="720" viewBox="0 0 1100 720" role="img" aria-labelledby="title desc">
  <title id="title">Laravel Alias Manager alias group preview</title>
  <desc id="desc">A terminal-style screenshot showing the alias-manager list command and available alias groups.</desc>
  <defs>
    <linearGradient id="bg" x1="0" x2="1" y1="0" y2="1">
      <stop offset="0" stop-color="#10151f"/>
      <stop offset="1" stop-color="#1b2330"/>
    </linearGradient>
    <filter id="shadow" x="-20%" y="-20%" width="140%" height="140%">
      <feDropShadow dx="0" dy="18" stdDeviation="20" flood-color="#000000" flood-opacity="0.32"/>
    </filter>
  </defs>
  <rect width="1100" height="720" fill="#eef2f7"/>
  <rect x="74" y="58" width="952" height="604" rx="18" fill="url(#bg)" filter="url(#shadow)"/>
  <rect x="74" y="58" width="952" height="58" rx="18" fill="#273142"/>
  <rect x="74" y="98" width="952" height="18" fill="#273142"/>
  <circle cx="112" cy="88" r="8" fill="#ff5f57"/>
  <circle cx="140" cy="88" r="8" fill="#ffbd2e"/>
  <circle cx="168" cy="88" r="8" fill="#28c840"/>
  <text x="550" y="94" text-anchor="middle" fill="#c9d4e5" font-family="ui-monospace, SFMono-Regular, Menlo, Consolas, monospace" font-size="15">laravel-alias-manager</text>

  <text x="118" y="162" fill="#8bd5ff" font-family="ui-monospace, SFMono-Regular, Menlo, Consolas, monospace" font-size="18">$ php artisan alias-manager:list</text>
  <text x="118" y="218" fill="#f7fafc" font-family="ui-monospace, SFMono-Regular, Menlo, Consolas, monospace" font-size="24" font-weight="700">Available Alias Groups</text>

  <g font-family="ui-monospace, SFMono-Regular, Menlo, Consolas, monospace" font-size="18">
    <text x="118" y="272" fill="#7dd3fc">system</text>
    <text x="258" y="272" fill="#d7dee9">System and navigation shortcuts.</text>
    <text x="118" y="316" fill="#7dd3fc">git</text>
    <text x="258" y="316" fill="#d7dee9">Git workflow shortcuts.</text>
    <text x="118" y="360" fill="#7dd3fc">composer</text>
    <text x="258" y="360" fill="#d7dee9">Composer package manager shortcuts.</text>
    <text x="118" y="404" fill="#7dd3fc">artisan</text>
    <text x="258" y="404" fill="#d7dee9">Laravel Artisan shortcuts.</text>
    <text x="118" y="448" fill="#7dd3fc">sail</text>
    <text x="258" y="448" fill="#d7dee9">Laravel Sail shortcuts.</text>
    <text x="118" y="492" fill="#7dd3fc">npm</text>
    <text x="258" y="492" fill="#d7dee9">npm and Vite shortcuts.</text>
    <text x="118" y="536" fill="#7dd3fc">quality</text>
    <text x="258" y="536" fill="#d7dee9">Laravel and PHP quality tool shortcuts.</text>
    <text x="118" y="580" fill="#7dd3fc">docker</text>
    <text x="258" y="580" fill="#d7dee9">Docker Compose shortcuts for local services.</text>
  </g>

  <rect x="740" y="202" width="220" height="52" rx="10" fill="#15202b" stroke="#334155"/>
  <text x="850" y="235" text-anchor="middle" fill="#34d399" font-family="ui-monospace, SFMono-Regular, Menlo, Consolas, monospace" font-size="17" font-weight="700">11 groups ready</text>
</svg>
